<?xml version="1.0" standalone="no"?>
<!DOCTYPE svg PUBLIC "-//W3C//DTD SVG 20010904//EN"
 "http://www.w3.org/TR/2001/REC-SVG-20010904/DTD/svg10.dtd">
<svg version="1.0" xmlns="http://www.w3.org/2000/svg"
 width="600.000000pt" height="600.000000pt" viewBox="0 0 600.000000 600.000000"
 preserveAspectRatio="xMidYMid meet">
<metadata>
Created by potrace 1.11, written by Peter Selinger 2001-2013
</metadata>
<g transform="translate(0.000000,600.000000) scale(0.100000,-0.100000)"
fill="#000000" stroke="none">
<path d="M4450 5910 c-1287 -6 -1213 -3 -1390 -61 -327 -108 -662 -377 -876
-704 -73 -112 -155 -281 -197 -405 -254 -747 15 -1466 741 -1974 l82 -57 0
-154 0 -153 -117 -62 c-216 -113 -429 -269 -536 -392 l-50 -58 49 -57 c27 -31
153 -173 281 -315 128 -142 287 -321 354 -398 l121 -140 33 28 c18 15 56 48
86 73 127 108 300 207 445 252 223 70 430 58 631 -39 261 -125 452 -384 514
-699 21 -104 16 -321 -9 -418 -10 -42 -16 -79 -13 -82 10 -5 1341 -9 1346 -3
9 8 34 163 45 267 81 810 -358 1538 -1165 1931 -201 98 -399 164 -570 190
-125 18 -115 10 -115 95 0 69 2 75 21 75 44 0 228 42 326 75 218 73 414 191
574 348 363 356 520 885 413 1397 -21 100 -85 293 -123 369 l-31 61 23 0 c12
0 108 -9 212 -19 105 -11 235 -23 290 -27 l100 -7 -6 489 c-4 269 -7 510 -8
537 l-1 47 -147 -2 c-82 -2 -681 -5 -1333 -8z m-608 -1070 c165 -51 299 -192
363 -381 37 -110 46 -288 21 -402 -59 -263 -258 -457 -486 -474 -242 -19 -470
168 -547 447 -13 49 -18 99 -17 200 1 118 4 145 27 215 102 310 373 477 639
395z"/>
</g>
</svg>
