<svg version="1" xmlns="http://www.w3.org/2000/svg" width="800" height="800" viewBox="0 0 600 600"><path d="M445 9c-128.7.6-121.3.3-139 6.1-32.7 10.8-66.2 37.7-87.6 70.4-7.3 11.2-15.5 28.1-19.7 40.5-25.4 74.7 1.5 146.6 74.1 197.4l8.2 5.7v30.7l-11.7 6.2c-21.6 11.3-42.9 26.9-53.6 39.2l-5 5.8 4.9 5.7c2.7 3.1 15.3 17.3 28.1 31.5s28.7 32.1 35.4 39.8l12.1 14 3.3-2.8c1.8-1.5 5.6-4.8 8.6-7.3 12.7-10.8 30-20.7 44.5-25.2 22.3-7 43-5.8 63.1 3.9 26.1 12.5 45.2 38.4 51.4 69.9 2.1 10.4 1.6 32.1-.9 41.8-1 4.2-1.6 7.9-1.3 8.2 1 .5 134.1.9 134.6.3.9-.8 3.4-16.3 4.5-26.7 8.1-81-35.8-153.8-116.5-193.1-20.1-9.8-39.9-16.4-57-19-12.5-1.8-11.5-1-11.5-9.5 0-6.9.2-7.5 2.1-7.5 4.4 0 22.8-4.2 32.6-7.5 21.8-7.3 41.4-19.1 57.4-34.8 36.3-35.6 52-88.5 41.3-139.7-2.1-10-8.5-29.3-12.3-36.9L532 110h2.3c1.2 0 10.8.9 21.2 1.9 10.5 1.1 23.5 2.3 29 2.7l10 .7-.6-48.9c-.4-26.9-.7-51-.8-53.7L593 8l-14.7.2c-8.2.2-68.1.5-133.3.8zm-60.8 107c16.5 5.1 29.9 19.2 36.3 38.1 3.7 11 4.6 28.8 2.1 40.2-5.9 26.3-25.8 45.7-48.6 47.4-24.2 1.9-47-16.8-54.7-44.7-1.3-4.9-1.8-9.9-1.7-20 .1-11.8.4-14.5 2.7-21.5 10.2-31 37.3-47.7 63.9-39.5z"/></svg>